<?xml version="1.0" encoding="UTF-8"?>
<svg width="924px" height="295px" viewBox="0 0 924 295" version="1.1" xmlns="http://www.w3.org/2000/svg" xmlns:xlink="http://www.w3.org/1999/xlink">
    <!-- Generator: Sketch 44.1 (41455) - http://www.bohemiancoding.com/sketch -->
    <title>odoo</title>
    <desc>Created with Sketch.</desc>
    <defs></defs>
    <g id="Page-1" stroke="none" stroke-width="1" fill="none" fill-rule="evenodd">
        <g id="odoo" fill-rule="nonzero">
            <path d="M112.235453,71.5209003 C127.244097,71.5209003 141.451308,74.5077042 154.808516,80.4813119 C181.354618,92.2176305 202.533874,113.481028 214.163088,140.071691 C220.137403,153.597299 223.148846,167.997093 223.148846,183.31964 C223.252378,198.113992 220.274929,212.767924 214.405947,226.349042 C208.756305,239.452241 200.709315,251.385414 190.678689,261.535048 C169.894805,282.684862 141.402939,294.474716 111.749736,294.195627 C96.4010908,294.195627 81.9753068,291.451653 68.4966702,285.915138 C41.740081,275.077206 20.3881879,254.05105 9.14209774,227.466058 C3.21966462,213.5007 0.243294364,198.463542 0.399198357,183.295357 C0.142221941,154.014025 11.770518,125.879857 32.6264969,105.322778 C54.0367253,84.5506623 82.4189687,72.499592 112.235453,71.5209003 L112.235453,71.5209003 Z M111.749736,117.07573 C102.861122,117.07573 94.3367951,118.751254 86.2010415,122.150868 C78.2918332,125.374903 71.1017618,130.137452 65.0480821,136.162135 C59.0342476,142.196274 54.192285,149.293685 50.7680131,157.094045 C47.1725793,165.364543 45.3682821,174.302206 45.4737018,183.31964 C45.4737018,192.231486 47.2222817,200.754804 50.7680131,208.889595 C54.3137446,217.000103 59.0494817,224.139293 65.0480821,230.282881 C71.0223967,236.426469 78.0652879,241.258778 86.2010415,244.779807 C94.3367951,248.325119 102.861122,250.073492 111.749736,250.073492 C120.638351,250.073492 129.162678,248.325119 137.298431,244.779807 C145.434185,241.258778 152.501362,236.426469 158.475676,230.282881 C164.449991,224.139293 169.210014,217.000103 172.755745,208.889595 C176.277191,200.754804 178.050057,192.231486 178.050057,183.31964 C177.127195,165.228836 170.667164,149.979138 158.718535,137.546264 C146.74562,125.113389 131.251259,118.289878 112.235453,117.051447 L111.749736,117.051447 L111.749736,117.07573 L111.749736,117.07573 Z" id="Shape" fill="#A24689"></path>
            <path d="M432.541286,0.638945338 C437.76274,0.347549839 442.668478,2.41160129 447.2585,6.85538264 C451.848522,11.3234469 454.155676,16.1557556 454.155676,21.3765916 L454.155676,182.882547 C454.155676,197.913698 451.095662,212.192077 444.951346,225.693402 C438.807031,239.194727 430.525562,250.996244 420.10694,261.122238 C409.688319,271.248232 397.788261,279.310174 384.431054,285.283781 C371.073846,291.257389 357.060922,294.244193 342.343708,294.244193 C327.623694,294.31669 313.047312,291.34885 299.527786,285.526611 C286.295111,279.882907 274.267069,271.755253 264.094758,261.583614 C253.896327,251.387778 245.699957,239.370604 239.930356,226.154778 C233.920385,212.53307 230.858191,197.794901 230.944598,182.90683 C230.944598,166.321569 233.616039,151.776077 239.007494,139.197505 C244.796471,125.985209 252.990342,113.963464 263.171897,103.744386 L263.171897,104.230045 C274.028532,93.8144179 286.749158,85.5354566 300.669221,79.825672 C314.035521,74.3575715 328.339066,71.5450387 342.780853,71.5451833 C351.378037,71.5451833 361.5538,72.9293119 373.381,75.6975691 C385.183915,78.4415434 396.938257,83.8080772 408.595456,91.7971704 L408.595456,23.6834727 C408.595456,20.6238199 409.202602,17.685582 410.441179,14.9416077 C411.655471,12.1976334 413.258336,9.64792283 415.249774,7.3410418 C417.241212,5.03416077 419.64551,3.26150482 422.389809,2.04735691 C424.985711,0.853668047 427.851203,0.367765041 430.695563,0.638945338 L432.541286,0.638945338 L432.541286,0.638945338 Z M408.619742,182.882547 C408.619742,174.602058 406.846876,166.467267 403.325431,158.502457 C399.808793,150.555767 394.898549,143.302295 388.826789,137.084887 C382.748277,130.844717 375.568599,125.781667 367.649544,122.150868 C359.722275,118.472497 351.08294,116.582348 342.343708,116.614354 C333.430807,116.614354 324.90648,118.362727 316.770727,121.908039 C308.885857,125.286814 301.709348,130.122763 295.617768,136.162135 C289.643453,142.160026 284.88343,149.202084 281.337699,157.336875 C277.791967,165.471666 276.043387,173.994984 276.043387,182.882547 C276.043387,192.085788 277.791967,200.657672 281.337699,208.671048 C284.88343,216.635859 289.643453,223.605068 295.617768,229.602958 C301.592082,235.576566 308.659259,240.336026 316.770727,243.857055 C324.90648,247.402367 333.430807,249.15074 342.343708,249.15074 C351.232322,249.15074 359.659506,247.402367 367.649544,243.857055 C375.615297,240.336026 382.682474,235.576566 388.826789,229.602958 C394.946819,223.605068 399.779699,216.635859 403.325431,208.671048 C406.846876,200.681955 408.619742,192.085788 408.619742,182.882547 L408.619742,182.882547 Z M578.887708,71.5209003 C593.920637,71.5209003 608.103563,74.5077042 621.46077,80.4813119 C647.991568,92.2482285 669.168879,113.500978 680.839629,140.071691 C686.813943,153.597299 689.801101,167.997093 689.801101,183.31964 C689.801101,198.690752 686.886801,213.017698 681.058201,226.349042 C675.229602,239.680386 667.336706,251.433338 657.35523,261.535048 C647.373753,271.661042 635.61941,279.650135 622.140774,285.478045 C608.662137,291.305955 594.066352,294.195627 578.426277,294.195627 C563.596663,294.303523 548.891005,291.489811 535.148925,285.915138 C508.37735,275.100021 487.017856,254.06638 475.794352,227.466058 C469.871919,213.5007 466.895549,198.463542 467.051453,183.295357 C466.848099,154.019662 478.478065,125.902642 499.303037,105.322778 C520.699243,84.5443315 549.076618,72.4916515 578.887708,71.5209003 L578.887708,71.5209003 Z M578.450563,117.07573 C569.537662,117.07573 561.013336,118.751254 552.901868,122.150868 C544.985213,125.374372 537.787087,130.136789 531.724623,136.162135 C525.718571,142.202707 520.877656,149.298583 517.444554,157.094045 C513.860308,165.368056 512.056498,174.303307 512.150242,183.31964 C512.150242,192.231486 513.923108,200.754804 517.444554,208.889595 C520.990285,217.000103 525.750308,224.139293 531.724623,230.282881 C537.698937,236.426469 544.766114,241.258778 552.901868,244.779807 C561.013336,248.325119 569.537662,250.073492 578.450563,250.073492 C596.040928,249.999561 612.865689,242.869786 625.152217,230.282881 C631.150817,224.139293 635.886554,217.000103 639.432286,208.889595 C642.978017,200.754804 644.726597,192.231486 644.726597,183.31964 C643.803736,165.228836 637.36799,149.979138 625.395075,137.546264 C613.446446,125.113389 597.9278,118.289878 578.911993,117.051447 L578.450563,117.051447 L578.450563,117.07573 L578.450563,117.07573 Z M812.687409,71.5209003 C827.720338,71.5209003 841.903264,74.5077042 855.260471,80.4813119 C881.791269,92.2482285 902.96858,113.500978 914.63933,140.071691 C920.613644,153.597299 923.600802,167.997093 923.600802,183.31964 C923.600802,198.690752 920.686502,213.017698 914.857902,226.349042 C909.029303,239.680386 901.136407,251.433338 891.154931,261.535048 C881.084383,271.728293 869.123175,279.860952 855.940475,285.478045 C842.12498,291.363309 827.242437,294.331198 812.225978,294.195627 C797.404005,294.30605 782.705802,291.492184 768.972912,285.915138 C742.181639,275.12143 720.807338,254.081816 709.594053,227.466058 C703.679947,213.498932 700.711858,198.461841 700.87544,183.295357 C700.618463,154.014025 712.246759,125.879857 733.102738,105.322778 C754.498944,84.5443315 782.876319,72.4916515 812.687409,71.5209003 L812.687409,71.5209003 Z M812.250264,117.07573 C803.337363,117.07573 794.813037,118.751254 786.701569,122.150868 C778.784914,125.374372 771.586788,130.136789 765.524324,136.162135 C759.517875,142.197247 754.68406,149.294785 751.26854,157.094045 C747.665472,165.362947 745.852915,174.300529 745.949943,183.31964 C745.949943,192.231486 747.722809,200.754804 751.26854,208.889595 C754.789986,217.000103 759.550009,224.139293 765.524324,230.282881 C771.498638,236.426469 778.565815,241.258778 786.701569,244.779807 C794.813037,248.325119 803.337363,250.073492 812.250264,250.073492 C829.840707,249.965434 846.660404,242.841509 858.976204,230.282881 C864.98361,224.073021 869.813829,216.824437 873.231987,208.889595 C876.777718,200.754804 878.526298,192.231486 878.526298,183.31964 C877.603437,165.228836 871.167691,149.979138 859.194776,137.546264 C847.246147,125.113389 831.727501,118.289878 812.711694,117.051447 L812.250264,117.051447 L812.250264,117.07573 L812.250264,117.07573 Z" id="Shape" fill="#8F8F8F"></path>
        </g>
    </g>
</svg>